<svg xmlns="http://www.w3.org/2000/svg" width="35" height="34" viewBox="0 0 35 34" fill="none">
  <path d="M4.11764 28.7666V25.4019H7.48234V13.6255C7.48234 11.2982 8.18332 9.23059 9.58528 7.42263C10.9872 5.61466 12.8098 4.42972 15.0529 3.86781V2.69017C15.0529 1.98919 15.2986 1.39363 15.7898 0.903508C16.281 0.413382 16.8766 0.167759 17.5765 0.166637C18.2763 0.165516 18.8724 0.411139 19.3648 0.903508C19.8572 1.39588 20.1022 1.99143 20.1 2.69017V3.86781C22.3431 4.4286 24.1657 5.61353 25.5676 7.42263C26.9696 9.23172 27.6706 11.2993 27.6706 13.6255V25.4019H31.0353V28.7666H4.11764ZM17.5765 33.8137C16.6512 33.8137 15.8593 33.4845 15.201 32.8262C14.5426 32.1678 14.2129 31.3754 14.2118 30.449H20.9412C20.9412 31.3743 20.612 32.1667 19.9536 32.8262C19.2953 33.4856 18.5029 33.8148 17.5765 33.8137ZM0.75293 13.6255C0.75293 10.8215 1.37708 8.24922 2.62539 5.90851C3.87369 3.56779 5.54876 1.6258 7.65058 0.0825195L9.62734 2.77428C7.94499 4.00801 6.6064 5.56419 5.61157 7.44281C4.61673 9.32144 4.11876 11.3823 4.11764 13.6255H0.75293ZM31.0353 13.6255C31.0353 11.3823 30.5373 9.32144 29.5414 7.44281C28.5454 5.56419 27.2074 4.00801 25.5273 2.77428L27.504 0.0825195C29.607 1.62468 31.2826 3.56667 32.5309 5.90851C33.7792 8.25034 34.4022 10.8227 34.4 13.6255H31.0353Z" fill="white"/>
</svg>