<svg width="32" height="32" viewBox="0 0 32 32" fill="none" xmlns="http://www.w3.org/2000/svg">
<g id="Frame">
<g id="Group">
<path id="Vector" d="M26.5 8.35978C26.9578 8.62092 27.3379 8.99906 27.6015 9.45545C27.8651 9.91184 28.0026 10.4301 28 10.9571V20.6691C28 21.7478 27.4093 22.7424 26.456 23.2664L17.456 28.9598C17.0098 29.2046 16.509 29.333 16 29.333C15.491 29.333 14.9902 29.2046 14.544 28.9598L5.544 23.2664C5.07802 23.011 4.68902 22.6353 4.41747 22.1785C4.14593 21.7217 4.00177 21.2005 4 20.6691V10.9558C4 9.87711 4.59067 8.88378 5.544 8.35978L14.544 3.05311C15.0034 2.79983 15.5194 2.66699 16.044 2.66699C16.5686 2.66699 17.0846 2.79983 17.544 3.05311L26.544 8.35978H26.5Z" stroke="black" stroke-width="2.66667" stroke-linecap="round" stroke-linejoin="round"/>
<path id="Vector_2" d="M13.333 13.3332V18.6665C13.333 19.3737 13.614 20.052 14.1141 20.5521C14.6142 21.0522 15.2924 21.3332 15.9997 21.3332C16.7069 21.3332 17.3852 21.0522 17.8853 20.5521C18.3854 20.052 18.6663 19.3737 18.6663 18.6665V13.3332C18.6663 12.6259 18.3854 11.9477 17.8853 11.4476C17.3852 10.9475 16.7069 10.6665 15.9997 10.6665C15.2924 10.6665 14.6142 10.9475 14.1141 11.4476C13.614 11.9477 13.333 12.6259 13.333 13.3332Z" stroke="black" stroke-width="2.66667" stroke-linecap="round" stroke-linejoin="round"/>
</g>
</g>
</svg>
