<svg width="32" height="32" viewBox="0 0 32 32" fill="none" xmlns="http://www.w3.org/2000/svg">
<g id="Frame">
<g id="Group">
<path id="Vector" d="M26.5 8.35978C26.9578 8.62092 27.3379 8.99906 27.6015 9.45545C27.8651 9.91184 28.0026 10.4301 28 10.9571V20.6691C28 21.7478 27.4093 22.7424 26.456 23.2664L17.456 28.9598C17.0098 29.2046 16.509 29.333 16 29.333C15.491 29.333 14.9902 29.2046 14.544 28.9598L5.544 23.2664C5.07802 23.011 4.68902 22.6353 4.41747 22.1785C4.14593 21.7217 4.00177 21.2005 4 20.6691V10.9558C4 9.87711 4.59067 8.88378 5.544 8.35978L14.544 3.05311C15.0034 2.79983 15.5194 2.66699 16.044 2.66699C16.5686 2.66699 17.0846 2.79983 17.544 3.05311L26.544 8.35978H26.5Z" stroke="black" stroke-width="2.66667" stroke-linecap="round" stroke-linejoin="round"/>
<path id="Vector_2" d="M13.333 11.9998C13.333 11.6462 13.4735 11.3071 13.7235 11.057C13.9736 10.807 14.3127 10.6665 14.6663 10.6665H17.333C17.6866 10.6665 18.0258 10.807 18.2758 11.057C18.5259 11.3071 18.6663 11.6462 18.6663 11.9998V14.6665C18.6663 15.0201 18.5259 15.3593 18.2758 15.6093C18.0258 15.8594 17.6866 15.9998 17.333 15.9998M17.333 15.9998H14.6663M17.333 15.9998C17.6866 15.9998 18.0258 16.1403 18.2758 16.3904C18.5259 16.6404 18.6663 16.9795 18.6663 17.3332V19.9998C18.6663 20.3535 18.5259 20.6926 18.2758 20.9426C18.0258 21.1927 17.6866 21.3332 17.333 21.3332H14.6663C14.3127 21.3332 13.9736 21.1927 13.7235 20.9426C13.4735 20.6926 13.333 20.3535 13.333 19.9998" stroke="black" stroke-width="2.66667" stroke-linecap="round" stroke-linejoin="round"/>
</g>
</g>
</svg>
